<svg width="40" height="40" viewBox="0 0 40 40" fill="none" xmlns="http://www.w3.org/2000/svg">
<rect width="40" height="40" rx="5" fill="#9A9696" fill-opacity="0.29"/>
<path d="M13 17C14.6569 17 16 15.6569 16 14C16 12.3431 14.6569 11 13 11C11.3431 11 10 12.3431 10 14C10 15.6569 11.3431 17 13 17Z" stroke="black" stroke-linecap="round" stroke-linejoin="round"/>
<path d="M13 17V23" stroke="black" stroke-linecap="round" stroke-linejoin="round"/>
<path d="M13 29C14.6569 29 16 27.6569 16 26C16 24.3431 14.6569 23 13 23C11.3431 23 10 24.3431 10 26C10 27.6569 11.3431 29 13 29Z" stroke="black" stroke-linecap="round" stroke-linejoin="round"/>
<path d="M20 11V29" stroke="black" stroke-linecap="round" stroke-linejoin="round"/>
<path d="M27 17C28.6569 17 30 15.6569 30 14C30 12.3431 28.6569 11 27 11C25.3431 11 24 12.3431 24 14C24 15.6569 25.3431 17 27 17Z" stroke="black" stroke-linecap="round" stroke-linejoin="round"/>
<path d="M24 23.7C24.9428 22.8567 25.6972 21.8242 26.2142 20.6698C26.7311 19.5153 26.9988 18.2649 27 17" stroke="black" stroke-linecap="round" stroke-linejoin="round"/>
</svg>
